# xmcd
#
# Track frame offsets:
#	182
#	16560
#	29715
#	43034
#	55109
#	69050
#	84210
#	98197
#	112631
#	125349
#	139624
#	152689
#	166542
#	179693
#	194805
#	208505
#	221558
#	235335
#	250427
#	261726
#
# Disc length: 3629 seconds
#
# Revision: 1
# Processed by: cddbd v1.5.1PL0 Copyright (c) Steve Scherf et al.
# Submitted via: audiograbber 1.83.01
#
DISCID=110e2b14
DTITLE=Various Artists w/ Django Reinhardt - Djangology (Intégrale vol3 - Disc1
DTITLE=)
DYEAR=1935
DGENRE=Jazz
TTITLE0=Django Reinhardt and Le Quintette Du Hot Club De France - Lilly Belle May
TTITLE0=June (1935-03-06)
TTITLE1=Django Reinhardt and Le Quintette Du Hot Club De France - Sweet Sue (1935
TTITLE1=03-06)
TTITLE2=Django Reinhardt and Le Quintette Du Hot Club De France - Confessin' (193
TTITLE2=5-03-06)
TTITLE3=Django Reinhardt and Le Quintette Du Hot Club De France - The Continental
TTITLE3=(1935-03-06)
TTITLE4=Patrick and Son Orchestre De Danse - Miss Otis Regrets (1935-03-08)
TTITLE5=Patrick and Son Orchestre De Danse - Waltzing with a dream (1935-03-08)
TTITLE6=Freddie Taylor and His Orchestra - Swanee River (April 1935)
TTITLE7=Pierre Lord - Simplement (April 1935)
TTITLE8=Pierre Lord - Smoke Gets In Your Eyes (April 1935)
TTITLE9=Pierre Lord - Cocktails Pour Deux (April 1935)
TTITLE10=Django Reinhardt and Le Quintette Du Hot Club De France - Blue Drag (Apr
TTITLE10=il 1935)
TTITLE11=Django Reinhardt and Le Quintette Du Hot Club De France - Swanee River (
TTITLE11=April 1935)
TTITLE12=Django Reinhardt and Le Quintette Du Hot Club De France - Ton Doux Souri
TTITLE12=re (April 1935)
TTITLE13=Django Reinhardt and Le Quintette Du Hot Club De France - Ultrafox (Apri
TTITLE13=l 1935)
TTITLE14=Germaine and Jean Sablon - Un Amour Comme Le Notre (1935-05-17)
TTITLE15=Germaine and Jean Sablon - La Petite Ile (1935-05-17)
TTITLE16=Nane Cholet - Si J'Avais Eté (May 1935)
TTITLE17=Nane Cholet - Fièvre (May 1935)
TTITLE18=Aux Combelle and Son Orchestre - What A Difference A Day Made (May-June 
TTITLE18=1935)
TTITLE19=Aux Combelle and Son Orchestre - The Sheik Of Araby (May-June 1935)
EXTD=YEAR: 1935
EXTT0=
EXTT1=
EXTT2=
EXTT3=
EXTT4=
EXTT5=
EXTT6=
EXTT7=
EXTT8=
EXTT9=
EXTT10=
EXTT11=
EXTT12=
EXTT13=
EXTT14=
EXTT15=
EXTT16=
EXTT17=
EXTT18=
EXTT19=
PLAYORDER=
